PathFileType	4	(X/Y/Z)	1_1_42_p0_0-209_filt_butterworth.trc
DataRate	CameraRate	NumFrames	NumMarkers	Units	OrigDataRate	OrigDataStartFrame	OrigNumFrames
59.0	59.0	5	27	m	59.0	104	209
Frame#	Time	RHip			RKnee			RAnkle			RBigToe			RSmallToe			RHeel			LHip			LKnee			LAnkle			LBigToe			LSmallToe			LHeel			Neck			Head			Nose			RShoulder			RElbow			RWrist			RThumb			RIndex			RPinky			LShoulder			LElbow			LWrist			LThumb			LIndex			LPinky			
		X1	Y1	Z1	X2	Y2	Z2	X3	Y3	Z3	X4	Y4	Z4	X5	Y5	Z5	X6	Y6	Z6	X7	Y7	Z7	X8	Y8	Z8	X9	Y9	Z9	X10	Y10	Z10	X11	Y11	Z11	X12	Y12	Z12	X13	Y13	Z13	X14	Y14	Z14	X15	Y15	Z15	X16	Y16	Z16	X17	Y17	Z17	X18	Y18	Z18	X19	Y19	Z19	X20	Y20	Z20	X21	Y21	Z21	X22	Y22	Z22	X23	Y23	Z23	X24	Y24	Z24	X25	Y25	Z25	X26	Y26	Z26	X27	Y27	Z27	
104	1.7627118644067796	0.3621026578670669	0.1137740335955508	1.0887634078223507	0.3678715546695527	0.2470001259674821	1.5556687300976157	0.36610810648739095	0.352956966565086	1.9642007110510282	0.32912270426988294	0.1662197460841658	1.9985953324810652	0.39050120127277227	0.20595524667175283	1.9999337028012831	0.340720558439558	0.44525445956228427	2.024175910925601	0.13422598909181804	0.11431438085089687	1.0863188970649107	0.1530165463823725	0.23854273616929814	1.5576359871181575	0.1662326289660856	0.33293804855623926	1.9554255293646683	0.17343081173170258	0.16454986749947836	2.0118493833613336	0.1220251602086563	0.20602031094222364	1.9897757444819486	0.19822617457398942	0.4013985727010192	2.0277567093914137	0.23287900343566548	0.09408785386486453	0.43373338929447514	0.22151068629777526	-0.006893317122613929	0.1754311421508499	0.22804835449828376	-0.02510845942798528	0.3143652071998574	0.4170247131528401	0.06913230366462887	0.5329928961804965	0.4894429391800644	0.11207073258203203	0.8096758479560953	0.4791801953435483	-0.010156790498616177	1.0753048024483056	0.4036838079420481	-0.03568411905220546	1.2058356087618232	0.4148704353802668	-0.029741485500936343	1.2384587529912936	0.462328784291387	-0.00899331085341028	1.2383702079788745	0.04075557986919277	0.1322646003722487	0.5502386386862916	-0.00034988862579411186	0.12809252302432794	0.8267186883086016	0.021361642069367436	0.09054761601163677	1.0970141837932754	0.06822482706407981	0.12479595458471432	1.2214470811430884	0.04434960818797801	0.07247154024399621	1.2411146576602468	-0.0033249845205940163	0.1255419075273841	1.2475005706618663
105	1.7796610169491525	0.364865080000337	0.11814777104967916	1.0884360725088809	0.3691774423509078	0.2510674722844101	1.5559722685909778	0.364469365132287	0.3530756465871975	1.9646668063065087	0.3295291789107811	0.16673487952661226	1.9958093806758381	0.390607202214273	0.20613054898236371	2.000284987769977	0.33965174780761265	0.4447333469726882	2.025723349680969	0.13419526768539852	0.11385695471719001	1.085325668236783	0.15482406720760988	0.2380241651210868	1.5579343519956588	0.16637328467736337	0.33269047954863173	1.9552149291035312	0.17575059961900824	0.1644818997877966	2.0115972562158895	0.12261904391310524	0.20606557485739466	1.987868471065362	0.19766220827491526	0.4065945846035817	2.030244314288207	0.2330791653602483	0.09349815906213675	0.43494664386263315	0.22188552654901822	-0.009227895946102503	0.17552706100178012	0.22907932066409495	-0.023324697204408017	0.3152112689527756	0.417016450123482	0.06939597311831533	0.5330283828044338	0.4894777926984644	0.11240854884031792	0.8085997301813377	0.4791379741154844	-0.012634591343715026	1.07319918819302	0.40128825038113064	-0.03765035889897808	1.2043503313003372	0.4126432663491798	-0.03299135393638894	1.2363605981329204	0.4565795150100953	-0.039505739970654305	1.2293102613353197	0.04074462844307926	0.13220398145602702	0.5502424758507487	-0.0006493419227644615	0.12739758898608605	0.8260934177270691	0.021664653021981697	0.08646589606737956	1.0959691723210228	0.06589581012073303	0.11463716997775657	1.2197892963872605	0.04306435993270721	0.06698831914725659	1.2394900420002326	-0.003335698608045792	0.11292736440736834	1.2453650452922815
106	1.7966101694915255	0.36698275584295514	0.1212498231925438	1.088472698837765	0.370279748651885	0.2543491815221205	1.557107351271647	0.3636413588495065	0.35433126364442585	1.9665804338928976	0.3300877780881144	0.1680645287842694	1.9950879096501586	0.39078355764321077	0.20622194007573533	2.000828742603463	0.33911333738899285	0.44383149911236874	2.0269980337448508	0.13418630098962234	0.1130478641868597	1.0854188029698948	0.1559911672584291	0.23803915176522575	1.5584938761930855	0.1665686874028031	0.33204833303879566	1.9558372356906402	0.17795885890112562	0.16350028151054175	2.010441444409719	0.12341822810574526	0.20618366237456623	1.9866141745210792	0.19687472266317968	0.4085545943621798	2.0321020782507424	0.23331486703332194	0.09282130050009114	0.4361213404363087	0.2221067785777312	-0.00910193333135824	0.1758294976702735	0.22986872477915574	-0.02393464712886303	0.31580865635665334	0.41695177699367336	0.06976859721903501	0.5330626791303724	0.489902626591045	0.11086423190737422	0.8083799878835598	0.47936668178364483	-0.013405346843317113	1.0723321093674965	0.3991394389358148	-0.04112776132842355	1.2020864063197851	0.4100219819449193	-0.036354590236435044	1.2339681026941665	0.44950781175225113	-0.05711625144760964	1.224837968364525	0.040826581783249716	0.13187785706936778	0.5502259786840706	-0.0011080601423041412	0.1266486616047937	0.8258369158256118	0.02202877738352311	0.08097916051670723	1.093722215333755	0.06251867969817351	0.09986129330360777	1.2165962492130646	0.04123809314469172	0.060527079803500305	1.2374475347032654	-0.003247526579626951	0.10219267565669041	1.2434608575717152
107	1.8135593220338984	0.3679871353290731	0.12274351898331654	1.089283191474033	0.37093991114420666	0.25598241151120915	1.559078529790766	0.3640800388546065	0.35764159844232585	1.9693755895671257	0.3304847073888208	0.16893339515898356	1.9976328494460598	0.39094453747301017	0.20603026869379915	2.0016774719252033	0.33893729787600396	0.44281502915265375	2.027702839582933	0.13431149645075627	0.11278339569876068	1.086588446514741	0.15638055291223324	0.2382470430258065	1.5588960872306936	0.16667154295727993	0.3312367340240576	1.9571444866368144	0.17903585434992175	0.16054151229809688	2.0073180092578955	0.12387690393808	0.20612900879340593	1.986145521489643	0.19628707694721342	0.40396327504754675	2.0317080951248387	0.2334737732240941	0.09227598104429982	0.43692241561791395	0.22272135805892987	-0.007423007639479403	0.17637914676003977	0.23084847403006956	-0.026878458062234673	0.31598008805281286	0.41692479371627617	0.06980273229306316	0.5330484267621174	0.49084910923994607	0.10699211546174293	0.8085922535476145	0.4791774706714764	-0.014219438104954251	1.0721972078619701	0.39707799088732565	-0.0480780743227402	1.1974192354180928	0.4081631033246708	-0.04004577841590717	1.2312830666213594	0.44261184845811685	-0.05892761648643956	1.2252331341337195	0.04085184960809574	0.13166664986590373	0.5502224869427437	-0.0030187693726497675	0.12626965942292623	0.82605557101322	0.021740388485305975	0.07628370286957054	1.0911374007610282	0.059015372348264074	0.08488988187788397	1.2117719067234953	0.03905214629359837	0.05488180828991114	1.2355577689727468	-0.0031974796588692175	0.09542827707143821	1.2414592254941696
108	1.8305084745762712	0.3686316474666866	0.1244074083815326	1.0908316014908381	0.3712167486440633	0.2562449397474477	1.5613003135439538	0.36503015787670173	0.36098672310264973	1.9717604121794217	0.33095356790812946	0.1691567631589148	2.001838260300378	0.3909884209703635	0.20542865783867784	2.0029658891701407	0.3388963683790558	0.44205107715190006	2.0280134781349113	0.134862869680469	0.11423499747888874	1.0891003663963383	0.1562822921521091	0.23837870955075924	1.5590324647488605	0.16665890483714124	0.33064526331421495	1.9583182748019317	0.17910036815177915	0.1565480288264877	2.0034887476525385	0.12399831380833196	0.20588592318727886	1.9860363753457484	0.19610251611184068	0.3946827036237614	2.0294064358649777	0.2335167702902392	0.09196700242804949	0.4371913582553312	0.22394533316882953	-0.006446142454894035	0.17679488576198912	0.2320002785026619	-0.03075063381288536	0.31585654100931365	0.41723011696561435	0.06851825072304236	0.5329072206560175	0.4920093920344168	0.10218365723141834	0.8088279703703055	0.47820840438535284	-0.01650542230724002	1.0722470826902675	0.3950372407427098	-0.05722606347432705	1.191515973375411	0.40739350387912876	-0.04554651943353737	1.2282481634649192	0.43714846124591594	-0.05406124628638838	1.2274130748790488	0.04082506062460867	0.13158503100178748	0.5502324579713009	-0.007042520274191163	0.12651743094446785	0.8266444615181832	0.020180296864460084	0.0731413152045689	1.0895498873526925	0.056270641567299655	0.07409651616931298	1.20674487181195	0.03665767025065386	0.05112892621331976	1.2347857879511153	-0.003651829580031936	0.09208200671370902	1.2398597798258268
